<svg width="522" height="293" viewBox="0 0 522 293" fill="none" xmlns="http://www.w3.org/2000/svg">
<path d="M319 26.5L434 172.5" stroke="black"/>
<path d="M518.862 230.846C520.622 232.713 520.682 235.61 519.002 237.549L512.423 245.14C511.089 246.679 509.033 247.199 507.214 246.658C506.469 246.437 505.764 246.037 505.165 245.457L266.461 14.1978L298.833 1.82947C300.726 1.10639 302.868 1.59684 304.257 3.07141L518.862 230.846Z" fill="white"/>
<path d="M248.981 4.05229L2.99633 245.662C1.03878 247.585 0.996477 250.726 2.90154 252.701L38.7855 289.898C39.8441 290.995 41.3457 291.549 42.8635 291.403L507.214 246.658C506.469 246.437 505.764 246.037 505.165 245.457L266.461 14.1978L255.964 4.02831C254.016 2.14049 250.917 2.15114 248.981 4.05229Z" fill="white"/>
<path d="M266.461 14.1978L255.964 4.02831C254.016 2.14049 250.917 2.15114 248.981 4.05229L2.99633 245.662C1.03878 247.585 0.996477 250.726 2.90154 252.701L38.7855 289.898C39.8441 290.995 41.3457 291.549 42.8635 291.403L507.214 246.658M266.461 14.1978L505.165 245.457C505.764 246.037 506.469 246.437 507.214 246.658M266.461 14.1978L298.833 1.82947C300.726 1.10639 302.868 1.59684 304.257 3.07141L518.862 230.846C520.622 232.713 520.682 235.61 519.002 237.549L512.423 245.14C511.089 246.679 509.033 247.199 507.214 246.658M507.461 246.634L507.214 246.658M313.461 61.1345L313.961 60.6345" stroke="black" stroke-width="3"/>
<path d="M26.5 272.5L283.5 32.5L318.5 26" stroke="#9FB3C9" stroke-width="2"/>
<path d="M98 283.5L319 70L345 59.5" stroke="#9FB3C9" stroke-width="2"/>
<path d="M184.5 276.5L352.5 100.5L371.5 94" stroke="#9FB3C9" stroke-width="2"/>
<path d="M267.5 267.5L392 140.5L405 135.5" stroke="#9FB3C9" stroke-width="2"/>
<path d="M349 261L431 176" stroke="#9FB3C9" stroke-width="2"/>
<path d="M428.5 252L465.5 211.5" stroke="#9FB3C9" stroke-width="2"/>
<path d="M318.5 26L443 183.5" stroke="#9FB3C9" stroke-width="2"/>
</svg>
